# xmcd CD database file
#
# Track frame offsets:
#	150
#	16169
#	46679
#	68127
#	83908
#	102487
#	122869
#	145564
#	164504
#	173736
#	199469
#	213589
#	235106
#	246519
#	260533
#	285631
#	297828
#	317386
#	341345
#
# Disc length: 4730 seconds
#
# Revision: 0
# Processed by: cddbd v1.5.2PL0 Copyright (c) Steve Scherf et al.
# Submitted via: CDex 1.51
#
DISCID=16127813
DTITLE=Various Artist - Rock in Jazz
DYEAR=2018
DGENRE=Jazz
TTITLE0=Jamie Cullum - The Wind Cries Mary - Jimi Hendrix
TTITLE1=Pink Turtle - Hotel California - Eagles
TTITLE2=Senor Coconut - Smoke On The Water (Cha-Cha-Cha) - Deep Purple
TTITLE3=The lost Fingers - Black Betty - Ram Jam
TTITLE4=Marlene Schaff - Wonderwall - Oasis
TTITLE5=Katrine Madsen - Can't Buy Me Love - The Beatles
TTITLE6=Caecilie Norby - Black Hole Sun - Soundgarden
TTITLE7=Torsten Goods - Crazy Little Thing Called Love - Queen
TTITLE8=Karen Lano - Highway To Hell - ACDC
TTITLE9=Andre Ceccareli - Walk On The Wild Side - Lou Reed
TTITLE10=Joe Pass - Satisfaction - Rolling Stones
TTITLE11=Youn Sun Nah - Enter Sandman - Metallica
TTITLE12=Nguyen Le Feat. NDR Bigband, Micheal Gibbs, You Sun Nah - Breathe - Pink Floyd
TTITLE13=Nouvelle Vague - Just Can't Get Enough - Depeche Mode
TTITLE14=Inger Marie Gundersen - One - U2
TTITLE15=Maxcence Cyrin - Where Is My Mind - Pixies
TTITLE16=Nostalgia 77 Feat. Alice Russel - Seven Nation Army - The White Stripes
TTITLE17=Tina Turner - Whole Lotta Love - Led Zeppelin
TTITLE18=Etta James - Welcome To The Jungle - Guns N'Roses
EXTD=YEAR: 2018
EXTT0=
EXTT1=
EXTT2=
EXTT3=
EXTT4=
EXTT5=
EXTT6=
EXTT7=
EXTT8=
EXTT9=
EXTT10=
EXTT11=
EXTT12=
EXTT13=
EXTT14=
EXTT15=
EXTT16=
EXTT17=
EXTT18=
PLAYORDER=
